External Loads File
version=1
nRows=87
nColumns=13
Range=5.000000e-03-10 seconds
endheader
time 	forceRightX 	forceRightY 	forceRightZ 	pointRightX 	pointRightY 	pointRightZ 	forceLeftX 	forceLeftY 	forceLeftZ 	pointLeftX 	pointLeftY 	pointLeftZ 		
0.005000 45.045479 125.879504 -0.000000 0.000000 0.000000 0.000000 24.513564 102.359393 -0.000000 0.000000 0.000000 0.000000
0.010000 44.763358 125.196624 -0.000000 0.000000 0.000000 0.000000 25.821832 103.570808 -0.000000 0.000000 0.000000 0.000000
0.015000 44.057455 124.705571 -0.000000 0.000000 0.000000 0.000000 26.635109 104.788023 -0.000000 0.000000 0.000000 0.000000
0.020000 43.777761 124.146278 -0.000000 0.000000 0.000000 0.000000 27.543297 105.761067 -0.000000 0.000000 0.000000 0.000000
0.025000 43.346742 123.753673 -0.000000 0.000000 0.000000 0.000000 28.074059 106.622890 -0.000000 0.000000 0.000000 0.000000
0.030000 43.357579 123.333801 -0.000000 0.000000 0.000000 0.000000 28.816216 107.279488 -0.000000 0.000000 0.000000 0.000000
0.035000 43.087081 123.137393 -0.000000 0.000000 0.000000 0.000000 29.229512 107.942119 -0.000000 0.000000 0.000000 0.000000
0.040000 43.014664 122.974452 -0.000000 0.000000 0.000000 0.000000 29.799427 108.546393 -0.000000 0.000000 0.000000 0.000000
0.045000 43.007194 122.861560 -0.000000 0.000000 0.000000 0.000000 30.442764 109.151123 -0.000000 0.000000 0.000000 0.000000
0.050000 43.113068 122.761260 -0.000000 0.000000 0.000000 0.000000 31.205626 109.757283 -0.000000 0.000000 0.000000 0.000000
0.055000 43.327344 122.668441 -0.000000 0.000000 0.000000 0.000000 32.068524 110.373353 -0.000000 0.000000 0.000000 0.000000
0.060000 43.408779 122.665179 -0.000000 0.000000 0.000000 0.000000 32.755163 111.031636 -0.000000 0.000000 0.000000 0.000000
0.065000 43.588187 122.663799 -0.000000 0.000000 0.000000 0.000000 33.391756 111.608116 -0.000000 0.000000 0.000000 0.000000
0.070000 43.904315 122.638458 -0.000000 0.000000 0.000000 0.000000 33.983931 112.052724 -0.000000 0.000000 0.000000 0.000000
0.075000 44.149114 122.645316 -0.000000 0.000000 0.000000 0.000000 34.365908 112.409389 -0.000000 0.000000 0.000000 0.000000
0.080000 44.481474 122.606469 -0.000000 0.000000 0.000000 0.000000 34.719504 112.621949 -0.000000 0.000000 0.000000 0.000000
0.085000 44.640280 122.599969 -0.000000 0.000000 0.000000 0.000000 34.849171 112.777560 -0.000000 0.000000 0.000000 0.000000
0.090000 44.943706 122.509595 -0.000000 0.000000 0.000000 0.000000 35.077685 112.814384 -0.000000 0.000000 0.000000 0.000000
0.095000 45.018557 122.489500 -0.000000 0.000000 0.000000 0.000000 35.043163 112.833481 -0.000000 0.000000 0.000000 0.000000
0.100000 45.198893 122.435089 -0.000000 0.000000 0.000000 0.000000 35.009758 112.708568 -0.000000 0.000000 0.000000 0.000000
0.105000 45.297278 122.415527 -0.000000 0.000000 0.000000 0.000000 34.775934 112.473292 -0.000000 0.000000 0.000000 0.000000
0.110000 45.310883 122.416782 -0.000000 0.000000 0.000000 0.000000 34.339737 112.132310 -0.000000 0.000000 0.000000 0.000000
0.115000 45.286901 122.406926 -0.000000 0.000000 0.000000 0.000000 33.783111 111.709188 -0.000000 0.000000 0.000000 0.000000
0.120000 45.184843 122.398810 -0.000000 0.000000 0.000000 0.000000 33.123871 111.265141 -0.000000 0.000000 0.000000 0.000000
0.125000 45.201069 122.331153 -0.000000 0.000000 0.000000 0.000000 32.575230 110.772776 -0.000000 0.000000 0.000000 0.000000
0.130000 45.107373 122.309702 -0.000000 0.000000 0.000000 0.000000 31.960446 110.309158 -0.000000 0.000000 0.000000 0.000000
0.135000 45.186048 122.249933 -0.000000 0.000000 0.000000 0.000000 31.577413 109.826192 -0.000000 0.000000 0.000000 0.000000
0.140000 45.009661 122.312796 -0.000000 0.000000 0.000000 0.000000 31.064092 109.441955 -0.000000 0.000000 0.000000 0.000000
0.145000 44.954722 122.355176 -0.000000 0.000000 0.000000 0.000000 30.745240 109.045122 -0.000000 0.000000 0.000000 0.000000
0.150000 44.813365 122.463918 -0.000000 0.000000 0.000000 0.000000 30.394672 108.678243 -0.000000 0.000000 0.000000 0.000000
0.155000 44.863384 122.550138 -0.000000 0.000000 0.000000 0.000000 30.190342 108.256923 -0.000000 0.000000 0.000000 0.000000
0.160000 44.897388 122.672863 -0.000000 0.000000 0.000000 0.000000 29.886307 107.811622 -0.000000 0.000000 0.000000 0.000000
0.165000 44.915832 122.789914 -0.000000 0.000000 0.000000 0.000000 29.467890 107.335553 -0.000000 0.000000 0.000000 0.000000
0.170000 45.231805 122.753135 -0.000000 0.000000 0.000000 0.000000 29.222259 106.755146 -0.000000 0.000000 0.000000 0.000000
0.175000 45.345138 122.737382 -0.000000 0.000000 0.000000 0.000000 28.754084 106.200718 -0.000000 0.000000 0.000000 0.000000
0.180000 45.687735 122.589317 -0.000000 0.000000 0.000000 0.000000 28.515486 105.610621 -0.000000 0.000000 0.000000 0.000000
0.185000 45.750339 122.501850 -0.000000 0.000000 0.000000 0.000000 28.136069 105.149906 -0.000000 0.000000 0.000000 0.000000
0.190000 45.879279 122.340787 -0.000000 0.000000 0.000000 0.000000 27.943610 104.762472 -0.000000 0.000000 0.000000 0.000000
0.195000 45.827298 122.190255 -0.000000 0.000000 0.000000 0.000000 27.738146 104.520047 -0.000000 0.000000 0.000000 0.000000
0.200000 45.740737 121.989743 -0.000000 0.000000 0.000000 0.000000 27.642048 104.389439 -0.000000 0.000000 0.000000 0.000000
0.205000 45.400650 121.819435 -0.000000 0.000000 0.000000 0.000000 27.445961 104.397487 -0.000000 0.000000 0.000000 0.000000
0.210000 45.249608 121.528351 -0.000000 0.000000 0.000000 0.000000 27.517054 104.434731 -0.000000 0.000000 0.000000 0.000000
0.215000 44.994418 121.269534 -0.000000 0.000000 0.000000 0.000000 27.599614 104.584881 -0.000000 0.000000 0.000000 0.000000
0.220000 44.953532 120.984858 -0.000000 0.000000 0.000000 0.000000 27.950470 104.792758 -0.000000 0.000000 0.000000 0.000000
0.225000 44.922705 120.795840 -0.000000 0.000000 0.000000 0.000000 28.386313 105.117234 -0.000000 0.000000 0.000000 0.000000
0.230000 44.773858 120.765500 -0.000000 0.000000 0.000000 0.000000 28.801345 105.593692 -0.000000 0.000000 0.000000 0.000000
0.235000 44.833643 120.769187 -0.000000 0.000000 0.000000 0.000000 29.459909 106.124356 -0.000000 0.000000 0.000000 0.000000
0.240000 44.917637 120.864822 -0.000000 0.000000 0.000000 0.000000 30.152973 106.720640 -0.000000 0.000000 0.000000 0.000000
0.245000 45.015948 121.034537 -0.000000 0.000000 0.000000 0.000000 30.822166 107.351204 -0.000000 0.000000 0.000000 0.000000
0.250000 45.145343 121.236711 -0.000000 0.000000 0.000000 0.000000 31.433233 107.955631 -0.000000 0.000000 0.000000 0.000000
0.255000 45.311284 121.427951 -0.000000 0.000000 0.000000 0.000000 31.957397 108.465504 -0.000000 0.000000 0.000000 0.000000
0.260000 45.482828 121.585439 -0.000000 0.000000 0.000000 0.000000 32.359966 108.843073 -0.000000 0.000000 0.000000 0.000000
0.265000 45.699567 121.677407 -0.000000 0.000000 0.000000 0.000000 32.671017 109.052812 -0.000000 0.000000 0.000000 0.000000
0.270000 45.645318 121.821584 -0.000000 0.000000 0.000000 0.000000 32.609324 109.181648 -0.000000 0.000000 0.000000 0.000000
0.275000 45.520444 121.947277 -0.000000 0.000000 0.000000 0.000000 32.388243 109.210115 -0.000000 0.000000 0.000000 0.000000
0.280000 45.708846 121.917090 -0.000000 0.000000 0.000000 0.000000 32.394022 109.068961 -0.000000 0.000000 0.000000 0.000000
0.285000 45.792602 121.896772 -0.000000 0.000000 0.000000 0.000000 32.300109 108.895514 -0.000000 0.000000 0.000000 0.000000
0.290000 45.489939 122.003865 -0.000000 0.000000 0.000000 0.000000 31.925271 108.811518 -0.000000 0.000000 0.000000 0.000000
0.295000 45.648587 121.933623 -0.000000 0.000000 0.000000 0.000000 32.070711 108.642288 -0.000000 0.000000 0.000000 0.000000
0.300000 45.487708 121.985849 -0.000000 0.000000 0.000000 0.000000 32.032440 108.618524 -0.000000 0.000000 0.000000 0.000000
0.305000 45.575185 121.940612 -0.000000 0.000000 0.000000 0.000000 32.301782 108.612254 -0.000000 0.000000 0.000000 0.000000
0.310000 45.671078 121.865451 -0.000000 0.000000 0.000000 0.000000 32.646596 108.689170 -0.000000 0.000000 0.000000 0.000000
0.315000 45.441874 121.869440 -0.000000 0.000000 0.000000 0.000000 32.721353 108.901054 -0.000000 0.000000 0.000000 0.000000
0.320000 45.588765 121.695848 -0.000000 0.000000 0.000000 0.000000 33.101208 109.010741 -0.000000 0.000000 0.000000 0.000000
0.325000 45.601503 121.555099 -0.000000 0.000000 0.000000 0.000000 33.288172 109.114054 -0.000000 0.000000 0.000000 0.000000
0.330000 45.574858 121.431928 -0.000000 0.000000 0.000000 0.000000 33.319783 109.142488 -0.000000 0.000000 0.000000 0.000000
0.335000 45.553116 121.326751 -0.000000 0.000000 0.000000 0.000000 33.215377 109.066118 -0.000000 0.314382 0.485231 -0.378604
0.340000 45.488421 121.273762 -0.000000 0.000000 0.000000 0.000000 32.963308 108.926728 -0.000000 0.314391 0.485232 -0.378600
0.345000 45.610871 121.198282 -0.000000 0.000000 0.000000 0.000000 32.817476 108.698602 -0.000000 0.314386 0.485239 -0.378599
0.350000 45.864390 121.121672 -0.000000 0.000000 0.000000 0.000000 32.765856 108.417245 -0.000000 0.314383 0.485245 -0.378604
0.355000 45.632709 121.265833 -0.000000 0.000000 0.000000 0.000000 32.293025 108.262865 -0.000000 0.314387 0.485250 -0.378602
0.360000 45.700971 121.317295 -0.000000 0.000000 0.000000 0.000000 32.112993 108.022727 -0.000000 0.314400 0.485255 -0.378604
0.365000 45.561759 121.447692 -0.000000 0.000000 0.000000 0.000000 31.751368 107.808303 -0.000000 0.314382 0.485258 -0.378607
0.370000 45.548431 121.510994 -0.000000 0.000000 0.000000 0.000000 31.479456 107.508984 -0.000000 0.314383 0.485261 -0.378608
0.375000 45.530028 121.542365 -0.000000 0.000000 0.000000 0.000000 31.156658 107.138767 -0.000000 0.314384 0.485263 -0.378601
0.380000 45.516371 121.538953 -0.000000 0.000000 0.000000 0.000000 30.761672 106.671928 -0.000000 0.314374 0.485264 -0.378600
0.385000 45.237751 121.612941 -0.000000 0.000000 0.000000 0.000000 30.041862 106.171248 -0.000000 0.314376 0.485265 -0.378601
0.390000 45.543556 121.460355 -0.000000 0.000000 0.000000 0.000000 29.729291 105.434191 -0.000000 0.314380 0.485265 -0.378595
0.395000 45.509988 121.438121 -0.000000 0.000000 0.000000 0.000000 29.005157 104.690117 -0.000000 0.314373 0.485265 -0.378602
0.400000 45.275184 121.497448 -0.000000 0.000000 0.000000 0.000000 28.016356 103.920891 -0.000000 0.314373 0.485264 -0.378600
0.405000 45.432725 121.407132 -0.000000 0.000000 0.000000 0.000000 27.335718 103.043502 -0.000000 0.314375 0.485263 -0.378593
0.410000 45.510695 121.344882 -0.000000 0.000000 0.000000 0.000000 26.614453 102.232331 -0.000000 0.314370 0.485261 -0.378607
0.415000 45.696325 121.265966 -0.000000 0.000000 0.000000 0.000000 26.053700 101.505721 -0.000000 0.314372 0.485260 -0.378607
0.420000 45.791547 121.274324 -0.000000 0.000000 0.000000 0.000000 25.535958 100.948590 -0.000000 0.314367 0.485258 -0.378598
0.425000 45.816711 121.381425 -0.000000 0.000000 0.000000 0.000000 25.115669 100.563483 -0.000000 0.314371 0.485256 -0.378603
0.430000 45.946269 121.524451 -0.000000 0.000000 0.000000 0.000000 24.952986 100.315955 -0.000000 0.314365 0.485253 -0.378597
0.435000 46.058793 121.727027 -0.000000 0.000000 0.000000 0.000000 24.943339 100.243618 -0.000000 0.314406 0.485251 -0.378642
